<svg xmlns="http://www.w3.org/2000/svg" viewBox="0 0 32 32" fill="none">
  <rect width="32" height="32" rx="10" fill="#0f172a" />
  <path
    d="M8.5 20.5c0-3.142 2.864-5.585 6.048-5.585a6.07 6.07 0 0 1 4.394-1.883c3.348 0 6.058 2.709 6.058 6.058C25 22.985 22.298 25 18.972 25H12.03C9.825 25 8.5 23.715 8.5 21.925"
    fill="#cbd5f5"
  />
  <path
    d="M11.2 24h9.8c2.332 0 4.2-1.83 4.2-4.088S23.332 15.9 20.999 15.9c-.41 0-.812.05-1.2.146-.646-2.53-2.957-4.446-5.756-4.446-3.29 0-5.958 2.709-5.958 6.05 0 .318.024.632.071.94C7.23 18.193 6 19.566 6 21.195 6 22.792 7.286 24 8.97 24H11.2Z"
    fill="#d8e4ff"
  />
</svg>
