<svg xmlns="http://www.w3.org/2000/svg" viewBox="0 0 32 32" fill="none">
  <defs>
    <radialGradient id="genericGradient" cx="50%" cy="35%" r="70%">
      <stop offset="0%" stop-color="#38bdf8" />
      <stop offset="65%" stop-color="#2563eb" />
      <stop offset="100%" stop-color="#1e3a8a" />
    </radialGradient>
  </defs>
  <rect width="32" height="32" rx="10" fill="#0f172a" />
  <path
    d="M16 8c2.652 0 5.077 1.396 6.473 3.625l.027.045c1.306 2.16.971 4.97-.86 6.8-.316.317-.512.747-.511 1.196.001.449.198.88.515 1.196.7.7.7 1.834 0 2.535-.7.7-1.835.7-2.535 0-.315-.317-.747-.514-1.195-.514-.45 0-.881.198-1.197.514-.7.7-1.835.7-2.535 0-.316-.316-.748-.514-1.197-.514-.448 0-.879.197-1.195.514-.7.7-1.835.7-2.535 0-.7-.7-.7-1.835 0-2.535.318-.316.515-.747.515-1.196 0-.449-.198-.88-.516-1.197-1.83-1.833-2.164-4.64-.854-6.802C10.921 9.4 13.345 8 16 8Z"
    fill="url(#genericGradient)"
  />
  <path
    d="M16 12.667a3.333 3.333 0 1 0 0 6.666 3.333 3.333 0 0 0 0-6.666Z"
    fill="#bae6fd"
    stroke="#f8fafc"
    stroke-width="1"
  />
</svg>
